# xmcd CD database file
#
# Track frame offsets:
#	182
#	15727
#	29332
#	61027
#
# Disc length: 1116 seconds
#
# Revision: 0
# Processed by: cddbd v1.5.1PL0 Copyright (c) Steve Scherf et al.
# Submitted via: CDex 1.50
#
DISCID=26045a04
DTITLE=Bryan Ferru - The Archive and Live Collection Part3
DYEAR=1993
DGENRE=Rock
TTITLE0=Girl Of My Best Friend
TTITLE1=Let's Stick Together
TTITLE2=Boys And Girls (Live)
TTITLE3=The Bogus Man (Live)
EXTD=YEAR: 1993
EXTT0=
EXTT1=
EXTT2=
EXTT3=
PLAYORDER=
